<svg width="347" height="605" viewBox="0 0 347 605" fill="none" xmlns="http://www.w3.org/2000/svg">
<path d="M0 605L347 605L347 2.47955e-05L0 2.47955e-05L0 605ZM212.457 305.273C211.006 325.145 194.099 340.881 173.506 340.881C152.937 340.881 136.044 325.178 134.56 305.344L212.457 305.273ZM134.445 599.13L134.445 501.888C142.068 514.689 156.211 523.303 172.37 523.303C188.518 523.303 202.672 514.685 210.29 501.888L210.29 599.13H134.445ZM134.574 483.114L210.157 483.114C208.625 502.288 192.271 517.433 172.36 517.433C152.465 517.429 136.101 502.293 134.574 483.114ZM216.271 599.13L216.271 480.173C216.271 456.394 196.576 437.048 172.369 437.048C148.162 437.048 128.467 456.394 128.467 480.173L128.467 599.13H34.2057L34.2057 556.694C34.2057 481.209 96.7185 419.8 173.563 419.8C250.407 419.8 312.92 481.213 312.92 556.694L312.915 599.13L216.271 599.13ZM210.17 477.242L134.554 477.242C136.086 458.063 152.454 442.922 172.364 442.922C192.269 442.922 208.646 458.063 210.17 477.242ZM341.034 599.13H318.91V556.694C318.91 477.979 253.714 413.93 173.577 413.93C93.4457 413.93 28.2445 477.974 28.2445 556.694L28.2445 599.13H6.00524L6.00524 305.441L128.584 305.347C130.083 328.427 149.669 346.756 173.521 346.756C197.412 346.756 217.012 328.389 218.468 305.272L341.047 305.178L341.042 599.131L341.034 599.13ZM134.577 299.463C136.167 279.722 153.012 264.131 173.509 264.131C193.982 264.131 210.818 279.694 212.432 299.402L134.577 299.463ZM210.294 5.882L210.294 103.124C202.675 90.3227 188.527 81.7086 172.374 81.7086C156.225 81.7086 142.072 90.3271 134.449 103.124L134.449 5.882H210.294ZM210.16 121.898H134.577C136.109 102.724 152.463 87.5786 172.373 87.5786C192.274 87.5833 208.628 102.719 210.16 121.898ZM128.467 5.882L128.467 124.834C128.467 148.613 148.162 167.96 172.368 167.96C196.575 167.96 216.27 148.613 216.27 124.834L216.27 5.87716L312.923 5.87716V48.3136C312.923 123.798 250.41 185.207 173.566 185.207C96.7214 185.207 34.2086 123.795 34.2086 48.3136L34.2086 5.87716L128.467 5.882ZM134.558 127.77H210.169C208.641 146.949 192.269 162.09 172.368 162.09C152.466 162.09 136.089 146.949 134.558 127.77ZM28.2335 5.882L28.2335 48.3184C28.2335 127.033 93.4298 191.082 173.566 191.082C253.708 191.082 318.899 127.038 318.899 48.3184V5.882H341.023L341.023 299.307L218.42 299.41C216.792 276.462 197.273 258.269 173.502 258.269C149.706 258.269 130.178 276.491 128.583 299.476L5.97962 299.57L5.97962 5.88083L28.2335 5.882Z" fill="black"/>
</svg>
